<svg width="881" height="1516" viewBox="0 0 881 1516" fill="none" xmlns="http://www.w3.org/2000/svg">
<path d="M552.666 34.4998C552.666 37.4453 555.054 39.8331 557.999 39.8331C560.945 39.8331 563.332 37.4453 563.332 34.4998C563.332 31.5543 560.945 29.1665 557.999 29.1665C555.054 29.1665 552.666 31.5543 552.666 34.4998ZM752.999 5.99995L752.798 6.97959L752.999 5.99995ZM830.999 81.4999L830.008 81.6313L830.015 81.688L830.029 81.7435L830.999 81.4999ZM684.999 211.5L685.066 212.498L684.999 211.5ZM443.499 166L442.792 166.707L443.499 166ZM497.5 166L498.33 166.558L497.5 166ZM50.9987 219.5L51.8308 220.055L50.9987 219.5ZM240.499 510.5L240.456 511.499L240.499 510.5ZM606.999 418L606.918 418.997L606.999 418ZM658.999 693.5L659.576 694.317L658.999 693.5ZM352.499 739.5L353.451 739.807L352.499 739.5ZM472 153.5L472.018 154.5L472.353 154.494L472.617 154.287L472 153.5ZM446.5 140.5L446.069 139.598L445.994 139.634L445.926 139.681L446.5 140.5ZM72.4914 1015.5C74.0408 1015.51 75.5847 1015.52 77.1234 1015.53L77.1342 1013.53C75.597 1013.52 74.0545 1013.51 72.5066 1013.5L72.4914 1015.5ZM86.2911 1015.56C89.3258 1015.56 92.3391 1015.56 95.3314 1015.55L95.3242 1013.55C92.335 1013.56 89.3247 1013.56 86.2931 1013.56L86.2911 1015.56ZM104.324 1015.49C107.416 1015.47 110.485 1015.44 113.531 1015.4L113.504 1013.4C110.461 1013.44 107.396 1013.47 104.307 1013.5L104.324 1015.49ZM122.6 1015.25C125.603 1015.2 128.584 1015.13 131.542 1015.06L131.495 1013.06C128.54 1013.13 125.563 1013.2 122.563 1013.25L122.6 1015.25ZM140.769 1014.82C143.819 1014.73 146.845 1014.63 149.847 1014.53L149.776 1012.53C146.779 1012.63 143.757 1012.73 140.71 1012.82L140.769 1014.82ZM158.782 1014.19C161.883 1014.06 164.957 1013.92 168.004 1013.78L167.909 1011.78C164.866 1011.92 161.796 1012.06 158.699 1012.19L158.782 1014.19ZM177.067 1013.32C180.083 1013.15 183.072 1012.98 186.034 1012.8L185.912 1010.8C182.954 1010.98 179.97 1011.15 176.958 1011.32L177.067 1013.32ZM195.224 1012.2C198.258 1011.99 201.264 1011.78 204.241 1011.55L204.088 1009.55C201.117 1009.78 198.116 1010 195.087 1010.21L195.224 1012.2ZM213.275 1010.82C216.347 1010.56 219.387 1010.29 222.397 1010.01L222.211 1008.02C219.208 1008.3 216.173 1008.57 213.107 1008.83L213.275 1010.82ZM231.332 1009.14C234.408 1008.83 237.451 1008.5 240.461 1008.17L240.239 1006.18C237.236 1006.51 234.199 1006.84 231.129 1007.15L231.332 1009.14ZM249.472 1007.12C252.5 1006.75 255.492 1006.37 258.451 1005.97L258.188 1003.99C255.237 1004.38 252.251 1004.76 249.23 1005.13L249.472 1007.12ZM267.52 1004.72C270.51 1004.29 273.463 1003.85 276.38 1003.39L276.072 1001.42C273.162 1001.87 270.217 1002.31 267.234 1002.74L267.52 1004.72ZM285.483 1001.91C288.477 1001.4 291.432 1000.88 294.346 1000.35L293.986 998.381C291.08 998.914 288.135 999.433 285.149 999.939L285.483 1001.91ZM303.361 998.629C306.353 998.036 309.301 997.427 312.206 996.804L311.786 994.849C308.892 995.47 305.953 996.076 302.972 996.668L303.361 998.629ZM321.138 994.81C324.114 994.119 327.043 993.412 329.925 992.689L329.438 990.749C326.568 991.469 323.651 992.174 320.686 992.862L321.138 994.81ZM338.784 990.374C341.728 989.574 344.62 988.756 347.462 987.92L346.897 986.001C344.069 986.833 341.19 987.647 338.259 988.444L338.784 990.374ZM356.242 985.228C359.15 984.3 362.001 983.352 364.796 982.384L364.142 980.494C361.363 981.457 358.527 982.4 355.634 983.323L356.242 985.228ZM373.431 979.266C376.314 978.18 379.134 977.071 381.891 975.94L381.132 974.089C378.393 975.213 375.591 976.315 372.726 977.394L373.431 979.266ZM390.229 972.366C393.068 971.095 395.835 969.798 398.531 968.476L397.65 966.68C394.976 967.992 392.23 969.279 389.412 970.541L390.229 972.366ZM406.615 964.323C409.328 962.862 411.964 961.373 414.523 959.856L413.503 958.136C410.968 959.638 408.357 961.114 405.667 962.562L406.615 964.323ZM422.304 955.003C424.893 953.303 427.395 951.572 429.812 949.809L428.633 948.193C426.244 949.936 423.769 951.649 421.207 953.331L422.304 955.003ZM437.024 944.249C439.415 942.301 441.71 940.318 443.914 938.3L442.563 936.825C440.388 938.816 438.122 940.775 435.761 942.699L437.024 944.249ZM450.478 931.906C452.624 929.68 454.668 927.416 456.614 925.114L455.086 923.823C453.169 926.091 451.155 928.323 449.039 930.517L450.478 931.906ZM462.275 917.932C464.095 915.453 465.81 912.935 467.424 910.377L465.733 909.31C464.143 911.828 462.455 914.308 460.663 916.748L462.275 917.932ZM472.026 902.478C473.471 899.782 474.813 897.047 476.058 894.272L474.233 893.454C473.008 896.186 471.685 898.879 470.263 901.533L472.026 902.478ZM479.51 885.806C480.562 882.95 481.519 880.056 482.385 877.126L480.467 876.559C479.613 879.448 478.67 882.3 477.633 885.114L479.51 885.806ZM484.699 868.279C485.375 865.326 485.967 862.338 486.477 859.317L484.505 858.984C484.001 861.968 483.417 864.918 482.749 867.833L484.699 868.279ZM487.752 850.281C488.095 847.284 488.365 844.256 488.564 841.198L486.568 841.068C486.371 844.095 486.104 847.09 485.765 850.054L487.752 850.281ZM488.952 832.088C488.983 830.566 488.999 829.036 488.999 827.5H486.999C486.999 829.023 486.984 830.538 486.952 832.047L488.952 832.088ZM488.999 827.5C488.999 825.939 488.977 824.393 488.934 822.863L486.935 822.919C486.978 824.43 486.999 825.957 486.999 827.5H488.999ZM488.415 813.73C488.147 810.631 487.79 807.602 487.347 804.642L485.369 804.937C485.805 807.856 486.158 810.844 486.423 813.902L488.415 813.73ZM485.698 795.633C485.036 792.59 484.28 789.629 483.438 786.749L481.519 787.311C482.347 790.145 483.091 793.061 483.744 796.059L485.698 795.633ZM480.544 778.044C479.452 775.126 478.267 772.304 476.999 769.576L475.185 770.42C476.432 773.101 477.597 775.875 478.671 778.745L480.544 778.044ZM472.796 761.412C471.262 758.706 469.64 756.108 467.942 753.619L466.29 754.746C467.957 757.189 469.549 759.74 471.057 762.399L472.796 761.412ZM462.45 746.264C460.488 743.857 458.449 741.574 456.348 739.415L454.914 740.81C456.975 742.928 458.975 745.167 460.901 747.528L462.45 746.264ZM449.648 733.12C447.284 731.092 444.863 729.204 442.398 727.456L441.241 729.087C443.656 730.8 446.029 732.65 448.345 734.638L449.648 733.12ZM434.661 722.501C431.959 720.948 429.224 719.553 426.474 718.317L425.653 720.141C428.343 721.35 431.019 722.715 433.664 724.235L434.661 722.501ZM417.886 714.981C414.916 714.005 411.948 713.212 409.003 712.603L408.598 714.561C411.467 715.155 414.362 715.928 417.262 716.881L417.886 714.981ZM399.859 711.292C396.718 711.045 393.632 711.018 390.628 711.211L390.756 713.207C393.661 713.02 396.652 713.046 399.702 713.285L399.859 711.292ZM381.473 712.55C378.392 713.273 375.445 714.265 372.672 715.528L373.501 717.348C376.147 716.143 378.968 715.192 381.93 714.497L381.473 712.55ZM364.686 720.305C362.227 722.195 360.001 724.377 358.054 726.849L359.625 728.087C361.467 725.748 363.573 723.682 365.905 721.89L364.686 720.305ZM353.228 734.826C352.598 736.222 352.037 737.677 351.547 739.193L353.451 739.807C353.917 738.361 354.452 736.976 355.051 735.649L353.228 734.826ZM351.547 739.193C351.057 740.713 350.66 742.21 350.358 743.681L352.317 744.084C352.604 742.688 352.981 741.262 353.451 739.807L351.547 739.193ZM349.695 752.863C349.921 756.029 350.643 759.031 351.84 761.849L353.681 761.067C352.572 758.456 351.9 755.671 351.69 752.72L349.695 752.863ZM356.775 769.668C358.696 771.88 360.984 773.914 363.612 775.762L364.762 774.126C362.252 772.361 360.089 770.433 358.284 768.356L356.775 769.668ZM371.575 780.318C374.185 781.534 377.007 782.625 380.031 783.585L380.636 781.679C377.686 780.742 374.945 779.682 372.419 778.505L371.575 780.318ZM388.779 785.879C391.616 786.482 394.589 786.99 397.692 787.4L397.954 785.417C394.899 785.013 391.977 784.514 389.195 783.923L388.779 785.879ZM406.681 788.286C409.592 788.482 412.599 788.601 415.698 788.641L415.723 786.641C412.659 786.602 409.688 786.484 406.815 786.291L406.681 788.286ZM424.72 788.541C427.656 788.441 430.664 788.276 433.74 788.044L433.589 786.049C430.54 786.28 427.56 786.444 424.652 786.543L424.72 788.541ZM442.751 787.191C445.656 786.862 448.614 786.477 451.625 786.035L451.334 784.056C448.345 784.495 445.408 784.878 442.526 785.203L442.751 787.191ZM460.487 784.59C463.395 784.071 466.348 783.5 469.343 782.877L468.935 780.919C465.958 781.538 463.025 782.106 460.135 782.622L460.487 784.59ZM478.158 780.917C481.015 780.243 483.907 779.522 486.833 778.754L486.326 776.819C483.415 777.583 480.539 778.3 477.698 778.971L478.158 780.917ZM495.519 776.363C498.369 775.543 501.249 774.679 504.158 773.771L503.562 771.862C500.667 772.766 497.802 773.625 494.966 774.441L495.519 776.363ZM512.668 771.015C515.488 770.068 518.333 769.081 521.203 768.053L520.528 766.17C517.671 767.194 514.839 768.177 512.031 769.119L512.668 771.015ZM529.604 764.948C532.374 763.894 535.165 762.802 537.976 761.672L537.23 759.816C534.431 760.942 531.651 762.029 528.893 763.079L529.604 764.948ZM546.303 758.235C549.024 757.082 551.763 755.895 554.518 754.671L553.707 752.843C550.962 754.062 548.234 755.245 545.523 756.393L546.303 758.235ZM562.749 750.931C565.423 749.688 568.112 748.412 570.815 747.102L569.943 745.302C567.25 746.608 564.57 747.879 561.906 749.117L562.749 750.931ZM578.933 743.085C581.563 741.758 584.204 740.399 586.858 739.007L585.929 737.236C583.285 738.623 580.652 739.977 578.032 741.3L578.933 743.085ZM594.845 734.741C597.434 733.332 600.033 731.893 602.643 730.423L601.661 728.681C599.06 730.146 596.469 731.58 593.889 732.984L594.845 734.741ZM610.502 725.921C613.048 724.437 615.604 722.924 618.168 721.381L617.137 719.667C614.581 721.205 612.033 722.714 609.495 724.193L610.502 725.921ZM625.885 716.664C628.394 715.106 630.91 713.52 633.434 711.906L632.357 710.221C629.84 711.831 627.331 713.412 624.83 714.965L625.885 716.664ZM641.002 706.992C643.476 705.362 645.956 703.705 648.442 702.02L647.32 700.365C644.841 702.045 642.368 703.697 639.902 705.322L641.002 706.992ZM655.857 696.926C657.095 696.063 658.335 695.193 659.576 694.317L658.423 692.683C657.185 693.557 655.948 694.424 654.713 695.284L655.857 696.926ZM659.576 694.317C660.836 693.427 662.079 692.536 663.306 691.645L662.13 690.027C660.911 690.913 659.675 691.798 658.423 692.683L659.576 694.317ZM670.472 686.284C672.849 684.452 675.158 682.617 677.402 680.78L676.135 679.232C673.907 681.057 671.613 682.88 669.251 684.699L670.472 686.284ZM684.267 674.967C686.525 672.989 688.709 671.009 690.82 669.026L689.45 667.568C687.357 669.535 685.191 671.5 682.95 673.462L684.267 674.967ZM697.258 662.742C699.376 660.592 701.411 658.44 703.364 656.286L701.883 654.943C699.949 657.075 697.933 659.208 695.833 661.338L697.258 662.742ZM709.227 649.525C711.167 647.181 713.013 644.836 714.767 642.491L713.165 641.293C711.432 643.611 709.606 645.93 707.686 648.25L709.227 649.525ZM719.888 635.26C721.594 632.711 723.193 630.162 724.691 627.616L722.966 626.602C721.489 629.114 719.91 631.63 718.225 634.149L719.888 635.26ZM728.976 619.792C730.346 617.093 731.604 614.399 732.753 611.711L730.914 610.925C729.782 613.572 728.543 616.227 727.192 618.887L728.976 619.792ZM736 603.313C736.992 600.449 737.863 597.594 738.618 594.751L736.685 594.237C735.942 597.033 735.086 599.841 734.11 602.658L736 603.313ZM740.581 586.035C741.133 583.059 741.561 580.098 741.87 577.153L739.881 576.944C739.577 579.837 739.157 582.747 738.615 585.671L740.581 586.035ZM742.455 568.192C742.531 565.183 742.487 562.194 742.329 559.228L740.332 559.335C740.487 562.249 740.531 565.185 740.455 568.141L742.455 568.192ZM741.505 550.307C741.114 547.335 740.611 544.389 740.003 541.473L738.045 541.882C738.643 544.75 739.138 547.646 739.522 550.567L741.505 550.307ZM737.854 532.769C737.034 529.893 736.114 527.051 735.1 524.243L733.219 524.922C734.218 527.688 735.124 530.487 735.931 533.317L737.854 532.769ZM731.782 515.924C730.587 513.189 729.306 510.492 727.944 507.834L726.164 508.747C727.508 511.368 728.772 514.028 729.949 516.725L731.782 515.924ZM723.628 499.992C722.116 497.421 720.529 494.893 718.876 492.41L717.211 493.518C718.844 495.971 720.411 498.468 721.905 501.006L723.628 499.992ZM713.723 485.097C711.94 482.703 710.097 480.356 708.201 478.059L706.659 479.333C708.534 481.604 710.357 483.925 712.119 486.292L713.723 485.097ZM702.34 471.304C700.328 469.094 698.268 466.938 696.167 464.838L694.753 466.252C696.832 468.331 698.87 470.464 700.861 472.65L702.34 471.304ZM689.707 458.671C687.492 456.65 685.241 454.691 682.961 452.795L681.682 454.333C683.939 456.209 686.167 458.149 688.36 460.149L689.707 458.671ZM675.954 447.231C673.555 445.414 671.134 443.667 668.699 441.994L667.566 443.643C669.976 445.298 672.372 447.027 674.746 448.825L675.954 447.231ZM661.207 437.106C658.638 435.517 656.061 434.011 653.486 432.592L652.521 434.344C655.066 435.746 657.614 437.235 660.155 438.807L661.207 437.106ZM645.539 428.486C642.799 427.165 640.07 425.947 637.365 424.837L636.606 426.688C639.273 427.782 641.965 428.983 644.67 430.288L645.539 428.486ZM628.963 421.714C626.042 420.743 623.161 419.908 620.335 419.216L619.86 421.159C622.63 421.837 625.459 422.656 628.332 423.611L628.963 421.714ZM611.499 417.498C610.004 417.286 608.53 417.121 607.08 417.003L606.918 418.997C608.327 419.111 609.761 419.272 611.219 419.478L611.499 417.498ZM607.08 417.003C605.527 416.877 603.983 416.761 602.448 416.655L602.31 418.65C603.837 418.755 605.373 418.871 606.918 418.997L607.08 417.003ZM593.344 416.138C590.246 416.001 587.186 415.905 584.161 415.85L584.124 417.849C587.132 417.905 590.175 418 593.256 418.136L593.344 416.138ZM575.071 415.802C571.969 415.828 568.905 415.895 565.879 416.003L565.95 418.002C568.958 417.895 572.003 417.827 575.087 417.802L575.071 415.802ZM556.742 416.458C553.678 416.655 550.654 416.892 547.666 417.17L547.851 419.161C550.82 418.885 553.825 418.649 556.869 418.454L556.742 416.458ZM538.521 418.154C535.462 418.529 532.442 418.946 529.459 419.401L529.761 421.378C532.724 420.926 535.725 420.512 538.764 420.139L538.521 418.154ZM520.47 420.909C517.43 421.465 514.428 422.061 511.463 422.695L511.881 424.65C514.827 424.021 517.81 423.429 520.83 422.876L520.47 420.909ZM502.537 424.737C499.553 425.465 496.606 426.23 493.693 427.029L494.222 428.958C497.117 428.164 500.046 427.404 503.011 426.68L502.537 424.737ZM484.914 429.565C481.969 430.459 479.058 431.386 476.179 432.343L476.809 434.241C479.673 433.29 482.567 432.368 485.495 431.479L484.914 429.565ZM467.532 435.334C464.648 436.37 461.794 437.434 458.968 438.522L459.687 440.389C462.5 439.306 465.339 438.247 468.209 437.216L467.532 435.334ZM450.481 441.891C447.643 443.05 444.832 444.231 442.043 445.428L442.833 447.266C445.611 446.073 448.411 444.897 451.237 443.742L450.481 441.891ZM433.671 449.104C430.88 450.354 428.11 451.618 425.358 452.892L426.198 454.707C428.943 453.436 431.706 452.175 434.488 450.929L433.671 449.104ZM417.093 456.769C414.335 458.078 411.593 459.393 408.863 460.709L409.732 462.511C412.459 461.195 415.197 459.882 417.95 458.576L417.093 456.769ZM400.649 464.689C397.905 466.023 395.171 467.354 392.441 468.68L393.315 470.479C396.045 469.153 398.781 467.821 401.524 466.488L400.649 464.689ZM384.23 472.649C381.486 473.968 378.744 475.276 376.001 476.568L376.853 478.377C379.602 477.082 382.348 475.772 385.096 474.452L384.23 472.649ZM367.739 480.406C364.975 481.671 362.206 482.914 359.43 484.134L360.234 485.965C363.021 484.741 365.798 483.493 368.57 482.225L367.739 480.406ZM351.061 487.719C348.261 488.886 345.45 490.024 342.623 491.129L343.351 492.991C346.193 491.881 349.018 490.737 351.83 489.565L351.061 487.719ZM334.111 494.331C331.266 495.359 328.403 496.349 325.518 497.297L326.142 499.197C329.047 498.243 331.928 497.246 334.791 496.212L334.111 494.331ZM316.839 499.997C313.942 500.846 311.021 501.65 308.072 502.405L308.568 504.342C311.54 503.582 314.484 502.771 317.401 501.916L316.839 499.997ZM299.221 504.497C296.285 505.134 293.32 505.719 290.321 506.249L290.67 508.219C293.694 507.684 296.685 507.094 299.645 506.452L299.221 504.497ZM281.36 507.652C278.389 508.057 275.383 508.407 272.342 508.697L272.532 510.688C275.601 510.395 278.632 510.043 281.63 509.634L281.36 507.652ZM263.27 509.379C260.279 509.543 257.251 509.65 254.185 509.696L254.215 511.696C257.308 511.649 260.362 511.542 263.38 511.376L263.27 509.379ZM245.134 509.655C243.613 509.619 242.083 509.567 240.542 509.501L240.456 511.499C242.009 511.566 243.553 511.618 245.087 511.654L245.134 509.655ZM240.542 509.501C238.978 509.433 237.425 509.356 235.881 509.269L235.769 511.266C237.321 511.353 238.883 511.431 240.456 511.499L240.542 509.501ZM226.74 508.632C223.683 508.377 220.668 508.083 217.693 507.752L217.471 509.739C220.465 510.073 223.499 510.369 226.574 510.625L226.74 508.632ZM208.574 506.598C205.542 506.168 202.555 505.698 199.613 505.188L199.271 507.159C202.234 507.672 205.242 508.146 208.293 508.578L208.574 506.598ZM190.578 503.471C187.578 502.849 184.626 502.184 181.721 501.478L181.249 503.422C184.176 504.133 187.15 504.802 190.172 505.429L190.578 503.471ZM172.844 499.152C169.887 498.32 166.982 497.444 164.13 496.524L163.516 498.428C166.393 499.355 169.321 500.239 172.302 501.078L172.844 499.152ZM155.488 493.553C152.594 492.494 149.757 491.389 146.976 490.24L146.212 492.089C149.019 493.248 151.881 494.363 154.8 495.431L155.488 493.553ZM138.653 486.596C135.848 485.296 133.105 483.95 130.421 482.559L129.501 484.335C132.211 485.739 134.981 487.098 137.812 488.41L138.653 486.596ZM122.457 478.202C119.788 476.662 117.183 475.077 114.641 473.447L113.562 475.131C116.13 476.777 118.761 478.379 121.458 479.935L122.457 478.202ZM107.081 468.342C104.593 466.573 102.171 464.76 99.8138 462.906L98.5772 464.478C100.96 466.352 103.408 468.184 105.923 469.972L107.081 468.342ZM92.7589 457.066C90.4498 455.056 88.2098 453.003 86.0377 450.912L84.6505 452.353C86.8465 454.467 89.1112 456.542 91.4456 458.575L92.7589 457.066ZM79.6502 444.445C77.5497 442.208 75.5204 439.934 73.5609 437.623L72.0356 438.917C74.0168 441.253 76.0686 443.553 78.1924 445.814L79.6502 444.445ZM67.841 430.523C65.9877 428.101 64.2056 425.644 62.4935 423.158L60.8462 424.292C62.5771 426.806 64.3787 429.289 66.2524 431.739L67.841 430.523ZM57.5044 415.512C55.8988 412.913 54.3647 410.286 52.9009 407.634L51.1499 408.6C52.6293 411.281 54.1799 413.936 55.8029 416.563L57.5044 415.512ZM48.6905 399.55C47.3469 396.812 46.0743 394.052 44.8711 391.274L43.0358 392.069C44.2514 394.875 45.5373 397.664 46.895 400.431L48.6905 399.55ZM41.4392 382.81C40.3582 379.955 39.3475 377.086 38.4056 374.205L36.5046 374.826C37.456 377.736 38.4768 380.635 39.5688 383.519L41.4392 382.81ZM35.7689 365.477C34.952 362.535 34.2043 359.586 33.5244 356.633L31.5754 357.082C32.2619 360.063 33.0169 363.041 33.8419 366.012L35.7689 365.477ZM31.671 347.688C31.1167 344.682 30.6309 341.677 30.212 338.677L28.2312 338.954C28.6541 341.983 29.1446 345.016 29.7041 348.051L31.671 347.688ZM29.1464 329.62C28.855 326.577 28.6313 323.544 28.4736 320.526L26.4763 320.63C26.6355 323.677 26.8614 326.739 27.1555 329.811L29.1464 329.62ZM28.1953 311.39C28.1688 308.324 28.21 305.278 28.317 302.258L26.3182 302.187C26.2102 305.237 26.1686 308.312 26.1954 311.407L28.1953 311.39ZM28.8434 293.149C29.0891 290.094 29.4025 287.07 29.7816 284.083L27.7975 283.832C27.4145 286.849 27.098 289.903 26.8499 292.988L28.8434 293.149ZM31.1423 275.078C31.6755 272.044 32.278 269.056 32.9473 266.121L30.9974 265.677C30.3205 268.645 29.7114 271.665 29.1724 274.732L31.1423 275.078ZM35.2107 257.278C36.0556 254.312 36.9717 251.411 37.956 248.582L36.067 247.924C35.0698 250.791 34.1423 253.728 33.2872 256.73L35.2107 257.278ZM41.2131 240.073C42.4088 237.224 43.6786 234.465 45.019 231.805L43.233 230.905C41.8709 233.608 40.5818 236.409 39.3689 239.299L41.2131 240.073ZM49.4183 223.849C50.2039 222.554 51.0082 221.288 51.8308 220.055L50.1667 218.945C49.3279 220.203 48.5082 221.493 47.7081 222.812L49.4183 223.849ZM51.8308 220.055C52.6758 218.787 53.5342 217.544 54.4059 216.326L52.7793 215.162C51.8948 216.399 51.0238 217.66 50.1667 218.945L51.8308 220.055ZM59.8542 209.228C61.7763 206.894 63.7528 204.662 65.7805 202.529L64.3308 201.151C62.2703 203.319 60.2624 205.586 58.3103 207.957L59.8542 209.228ZM72.1759 196.273C74.4048 194.248 76.6868 192.327 79.0185 190.505L77.7873 188.929C75.4167 190.781 73.0968 192.734 70.8309 194.793L72.1759 196.273ZM86.279 185.258C88.7734 183.592 91.317 182.028 93.906 180.56L92.9198 178.82C90.2892 180.311 87.7041 181.901 85.1684 183.594L86.279 185.258ZM101.852 176.424C104.548 175.138 107.288 173.946 110.066 172.845L109.329 170.986C106.51 172.103 103.729 173.313 100.991 174.618L101.852 176.424ZM118.501 169.811C121.337 168.89 124.208 168.055 127.111 167.3L126.608 165.364C123.668 166.129 120.759 166.975 117.884 167.908L118.501 169.811ZM135.855 165.286C138.777 164.695 141.725 164.18 144.698 163.736L144.402 161.758C141.398 162.207 138.415 162.728 135.459 163.325L135.855 165.286ZM153.611 162.619C156.579 162.316 159.566 162.079 162.569 161.902L162.452 159.906C159.422 160.084 156.406 160.324 153.408 160.629L153.611 162.619ZM171.555 161.554C174.543 161.496 177.543 161.494 180.551 161.544L180.584 159.544C177.553 159.494 174.529 159.496 171.516 159.554L171.555 161.554ZM189.546 161.845C192.536 161.994 195.531 162.191 198.529 162.431L198.689 160.438C195.672 160.196 192.656 159.998 189.645 159.848L189.546 161.845ZM207.493 163.278C210.474 163.602 213.455 163.965 216.431 164.365L216.698 162.383C213.705 161.98 210.708 161.615 207.708 161.29L207.493 163.278ZM225.344 165.671C228.314 166.142 231.276 166.645 234.228 167.179L234.584 165.211C231.618 164.675 228.642 164.169 225.657 163.696L225.344 165.671ZM243.081 168.873C246.036 169.468 248.978 170.091 251.902 170.736L252.333 168.783C249.397 168.135 246.444 167.51 243.476 166.912L243.081 168.873ZM260.689 172.756C263.629 173.458 266.548 174.18 269.443 174.918L269.937 172.98C267.033 172.239 264.104 171.515 261.153 170.811L260.689 172.756ZM278.164 177.211C281.092 178.002 283.989 178.807 286.854 179.622L287.401 177.698C284.529 176.881 281.622 176.074 278.686 175.28L278.164 177.211ZM295.515 182.139C298.436 183.007 301.316 183.879 304.15 184.753L304.739 182.841C301.899 181.966 299.012 181.092 296.084 180.222L295.515 182.139ZM312.764 187.45C315.688 188.379 318.555 189.303 321.361 190.217L321.98 188.316C319.171 187.4 316.299 186.475 313.37 185.544L312.764 187.45ZM329.943 193.039C331.376 193.514 332.789 193.984 334.183 194.449L334.815 192.551C333.421 192.087 332.006 191.616 330.572 191.141L329.943 193.039ZM334.183 194.449C335.593 194.919 336.999 195.373 338.399 195.812L338.998 193.904C337.608 193.468 336.214 193.018 334.815 192.551L334.183 194.449ZM346.861 198.295C349.731 199.08 352.58 199.8 355.405 200.458L355.858 198.51C353.058 197.858 350.234 197.144 347.388 196.366L346.861 198.295ZM364.045 202.292C366.976 202.853 369.88 203.347 372.754 203.776L373.049 201.798C370.202 201.373 367.326 200.883 364.421 200.327L364.045 202.292ZM381.508 204.893C384.473 205.207 387.404 205.451 390.298 205.629L390.421 203.633C387.556 203.457 384.655 203.215 381.718 202.904L381.508 204.893ZM399.136 205.968C402.123 206.012 405.065 205.985 407.961 205.889L407.895 203.89C405.031 203.985 402.121 204.012 399.166 203.968L399.136 205.968ZM416.789 205.375C419.773 205.124 422.7 204.8 425.569 204.405L425.296 202.424C422.463 202.814 419.571 203.134 416.622 203.382L416.789 205.375ZM434.298 202.954C437.242 202.378 440.114 201.727 442.912 201.003L442.411 199.067C439.653 199.78 436.82 200.423 433.914 200.991L434.298 202.954ZM451.416 198.514C454.283 197.572 457.056 196.552 459.731 195.46L458.976 193.609C456.344 194.682 453.615 195.686 450.792 196.614L451.416 198.514ZM467.802 191.805C470.513 190.447 473.1 189.009 475.557 187.501L474.51 185.797C472.104 187.274 469.568 188.683 466.906 190.017L467.802 191.805ZM482.895 182.496C485.33 180.649 487.594 178.724 489.675 176.732L488.292 175.287C486.269 177.223 484.064 179.099 481.686 180.903L482.895 182.496ZM495.692 170.158C496.631 168.975 497.511 167.774 498.33 166.558L496.67 165.441C495.882 166.612 495.034 167.771 494.125 168.915L495.692 170.158ZM498.33 166.558C499.254 165.185 499.749 163.063 499.837 160.793L497.839 160.715C497.757 162.821 497.296 164.512 496.67 165.441L498.33 166.558ZM496.891 149.763C494.742 146.703 491.315 144.671 486.43 145.247L486.664 147.233C490.759 146.751 493.493 148.403 495.255 150.912L496.891 149.763ZM475.927 149.479C474.487 150.392 472.974 151.466 471.383 152.713L472.617 154.287C474.162 153.075 475.621 152.041 476.999 151.167L475.927 149.479ZM471.982 152.5C470.971 152.518 469.96 152.187 468.9 151.555L467.875 153.272C469.148 154.032 470.526 154.526 472.018 154.5L471.982 152.5ZM463.437 146.641C461.698 144.798 459.835 142.788 457.805 141.243L456.593 142.834C458.465 144.259 460.207 146.132 461.983 148.013L463.437 146.641ZM450.111 138.501C448.81 138.579 447.465 138.93 446.069 139.598L446.931 141.402C448.119 140.834 449.213 140.559 450.23 140.498L450.111 138.501ZM445.926 139.681C444.828 140.451 443.772 141.259 442.787 142.106L444.091 143.622C445.018 142.826 446.02 142.058 447.074 141.319L445.926 139.681ZM437.616 148.308C436.344 150.774 435.831 153.503 436.473 156.483L438.428 156.061C437.894 153.585 438.309 151.327 439.394 149.225L437.616 148.308ZM440.132 163.729C440.896 164.703 441.781 165.696 442.792 166.707L444.206 165.293C443.245 164.331 442.415 163.399 441.706 162.494L440.132 163.729ZM442.792 166.707C443.796 167.711 444.919 168.723 446.158 169.739L447.426 168.193C446.232 167.213 445.158 166.245 444.206 165.293L442.792 166.707ZM453.528 174.999C455.898 176.496 458.506 177.997 461.342 179.491L462.275 177.722C459.479 176.249 456.917 174.774 454.596 173.308L453.528 174.999ZM469.428 183.451C472.039 184.642 474.795 185.825 477.692 186.994L478.44 185.139C475.57 183.981 472.841 182.81 470.259 181.631L469.428 183.451ZM486.07 190.19C488.796 191.174 491.624 192.144 494.551 193.097L495.169 191.195C492.262 190.249 489.454 189.286 486.749 188.309L486.07 190.19ZM503.137 195.754C505.936 196.578 508.813 197.385 511.766 198.173L512.282 196.24C509.345 195.457 506.484 194.654 503.702 193.835L503.137 195.754ZM520.439 200.376C523.286 201.064 526.196 201.734 529.167 202.384L529.594 200.43C526.638 199.784 523.742 199.117 520.909 198.432L520.439 200.376ZM537.937 204.207C540.821 204.776 543.757 205.326 546.743 205.854L547.091 203.885C544.118 203.359 541.195 202.811 538.324 202.245L537.937 204.207ZM555.577 207.333C558.487 207.793 561.44 208.232 564.436 208.65L564.713 206.67C561.728 206.253 558.787 205.815 555.889 205.358L555.577 207.333ZM573.317 209.811C576.246 210.169 579.213 210.506 582.216 210.821L582.425 208.832C579.432 208.518 576.477 208.182 573.559 207.826L573.317 209.811ZM591.132 211.683C594.076 211.944 597.054 212.183 600.063 212.401L600.208 210.407C597.209 210.189 594.242 209.95 591.308 209.691L591.132 211.683ZM609.008 212.979C611.962 213.146 614.945 213.293 617.956 213.417L618.039 211.419C615.038 211.295 612.065 211.149 609.121 210.982L609.008 212.979ZM626.892 213.719C629.848 213.797 632.829 213.854 635.835 213.888L635.858 211.888C632.862 211.854 629.89 211.798 626.944 211.72L626.892 213.719ZM644.786 213.925C647.75 213.916 650.736 213.885 653.744 213.832L653.709 211.832C650.71 211.885 647.734 211.916 644.78 211.925L644.786 213.925ZM662.708 213.609C665.668 213.514 668.647 213.398 671.646 213.26L671.554 211.262C668.564 211.4 665.594 211.516 662.644 211.61L662.708 213.609ZM680.575 212.784C682.068 212.694 683.565 212.599 685.066 212.498L684.932 210.502C683.435 210.603 681.943 210.698 680.455 210.788L680.575 212.784ZM685.066 212.498C686.626 212.393 688.17 212.275 689.7 212.146L689.532 210.153C688.013 210.282 686.48 210.398 684.932 210.502L685.066 212.498ZM698.804 211.215C701.885 210.844 704.904 210.421 707.861 209.951L707.546 207.976C704.615 208.442 701.622 208.861 698.565 209.229L698.804 211.215ZM716.904 208.325C719.966 207.709 722.957 207.039 725.877 206.318L725.398 204.376C722.506 205.09 719.544 205.753 716.51 206.364L716.904 208.325ZM734.745 203.912C737.738 203.024 740.651 202.08 743.485 201.085L742.823 199.198C740.02 200.182 737.138 201.116 734.176 201.994L734.745 203.912ZM752.071 197.817C754.959 196.629 757.757 195.385 760.467 194.09L759.604 192.285C756.928 193.565 754.164 194.793 751.31 195.967L752.071 197.817ZM768.635 189.89C771.368 188.38 774.001 186.817 776.536 185.205L775.463 183.517C772.963 185.107 770.366 186.65 767.668 188.139L768.635 189.89ZM784.153 180.011C786.68 178.163 789.096 176.267 791.403 174.329L790.117 172.797C787.844 174.706 785.464 176.575 782.972 178.396L784.153 180.011ZM798.238 168.17C800.484 165.998 802.607 163.788 804.613 161.549L803.123 160.214C801.149 162.418 799.059 164.594 796.848 166.732L798.238 168.17ZM810.511 154.45C812.42 151.969 814.196 149.466 815.842 146.952L814.169 145.856C812.55 148.328 810.804 150.79 808.926 153.23L810.511 154.45ZM820.593 139.045C822.103 136.291 823.467 133.539 824.69 130.807L822.864 129.99C821.663 132.673 820.324 135.377 818.839 138.083L820.593 139.045ZM828.105 122.223C829.151 119.225 830.03 116.271 830.751 113.384L828.81 112.899C828.104 115.727 827.243 118.623 826.216 121.564L828.105 122.223ZM832.541 104.326C833.005 101.115 833.263 98.0276 833.33 95.1007L831.33 95.0549C831.265 97.8971 831.015 100.904 830.562 104.04L832.541 104.326ZM832.844 85.8229C832.622 84.2176 832.33 82.692 831.969 81.2562L830.029 81.7435C830.371 83.103 830.65 84.5567 830.862 86.0961L832.844 85.8229ZM831.99 81.3685C831.815 80.0443 831.522 78.418 831.088 76.5484L829.14 77.001C829.562 78.8167 829.842 80.3792 830.008 81.6313L831.99 81.3685ZM828.291 67.2327C827.274 64.4368 826.022 61.4256 824.498 58.2851L822.699 59.1583C824.192 62.2341 825.416 65.1819 826.412 67.9166L828.291 67.2327ZM819.821 49.7643C818.189 47.1148 816.359 44.4303 814.31 41.7554L812.722 42.9715C814.728 45.5901 816.52 48.2186 818.118 50.8133L819.821 49.7643ZM808.007 34.3492C805.849 32.0631 803.509 29.8162 800.976 27.6382L799.672 29.1548C802.151 31.2862 804.441 33.4851 806.553 35.7223L808.007 34.3492ZM793.292 21.6935C790.707 19.8984 787.961 18.1801 785.042 16.5593L784.071 18.3077C786.931 19.8958 789.621 21.5787 792.151 23.3361L793.292 21.6935ZM776.335 12.2578C773.458 11.0015 770.44 9.8372 767.274 8.7791L766.64 10.6759C769.75 11.7154 772.713 12.8584 775.535 14.0907L776.335 12.2578ZM757.945 6.08711C756.394 5.70687 754.813 5.35083 753.2 5.0203L752.798 6.97959C754.386 7.30503 755.943 7.65546 757.469 8.02956L757.945 6.08711ZM753.2 5.0203C751.715 4.71611 750.223 4.4295 748.723 4.16012L748.369 6.12863C749.854 6.39518 751.33 6.67872 752.798 6.97959L753.2 5.0203ZM739.708 2.75702C736.711 2.3598 733.688 2.02605 730.644 1.75299L730.466 3.74499C733.483 4.01562 736.477 4.3463 739.446 4.73969L739.708 2.75702ZM721.549 1.118C718.529 0.965535 715.492 0.868659 712.442 0.824786L712.413 2.82458C715.44 2.86812 718.453 2.96424 721.448 3.11546L721.549 1.118ZM703.327 0.848134C700.303 0.905894 697.268 1.01246 694.227 1.16538L694.327 3.16286C697.349 3.01095 700.363 2.90512 703.366 2.84777L703.327 0.848134ZM685.137 1.75663C682.118 1.99671 679.095 2.27978 676.072 2.60345L676.285 4.59209C679.291 4.27029 682.295 3.98893 685.296 3.75034L685.137 1.75663ZM667.034 3.6902C664.027 4.0906 661.024 4.52889 658.026 5.00276L658.338 6.97823C661.32 6.50684 664.308 6.07089 667.298 5.67269L667.034 3.6902ZM649.053 6.52876C646.066 7.07232 643.087 7.64925 640.12 8.25719L640.521 10.2165C643.474 9.61143 646.438 9.03732 649.411 8.49646L649.053 6.52876ZM631.224 10.1797C628.257 10.8538 625.306 11.5571 622.373 12.2873L622.857 14.2281C625.776 13.5011 628.714 12.801 631.667 12.1299L631.224 10.1797ZM613.568 14.574C610.624 15.37 607.702 16.1913 604.807 17.0354L605.367 18.9555C608.25 18.115 611.158 17.2972 614.09 16.5047L613.568 14.574ZM596.103 19.6648C593.183 20.5778 590.294 21.5121 587.44 22.4651L588.074 24.3621C590.916 23.4131 593.792 22.4828 596.699 21.5737L596.103 19.6648ZM578.846 25.4276C575.953 26.4564 573.102 27.5023 570.297 28.5624L571.004 30.4333C573.797 29.3778 576.636 28.3364 579.516 27.312L578.846 25.4276ZM561.822 31.863C560.407 32.431 559.005 33.0021 557.617 33.5757L558.381 35.424C559.762 34.853 561.158 34.2846 562.567 33.7192L561.822 31.863Z" fill="white"/>
<path d="M26.4995 1014.5C-33.8338 1216.17 -16.0008 1420 451.5 1420C546.405 1420 646.5 1179.5 578 1207.5C537.5 1224.05 570 1532.8 880 1514" stroke="url(#paint0_linear_364_11)" stroke-width="2" stroke-dasharray="9 9"/>
<defs>
<linearGradient id="paint0_linear_364_11" x1="60.5001" y1="1136.5" x2="870.5" y2="1583" gradientUnits="userSpaceOnUse">
<stop stop-color="white"/>
<stop offset="1" stop-color="#89C2FF"/>
</linearGradient>
</defs>
</svg>
