<svg width="83" height="27" viewBox="0 0 83 27" fill="none" xmlns="http://www.w3.org/2000/svg">
<path d="M10.608 26.384C7.408 26.384 4.912 25.4987 3.12 23.728C1.34933 21.9573 0.464 19.4293 0.464 16.144V3.6H5.648V15.952C5.648 19.9627 7.312 21.968 10.64 21.968C12.2613 21.968 13.4987 21.488 14.352 20.528C15.2053 19.5467 15.632 18.0213 15.632 15.952V3.6H20.752V16.144C20.752 19.4293 19.856 21.9573 18.064 23.728C16.2933 25.4987 13.808 26.384 10.608 26.384ZM53.1708 8.784L46.9308 26H42.1308L38.2588 15.312L34.2588 26H29.4588L23.2508 8.784H27.9548L32.0188 20.432L36.2428 8.784H40.4668L44.5628 20.432L48.7548 8.784H53.1708ZM55.4915 8.784H60.4835V26H55.4915V8.784ZM57.9875 6.384C57.0702 6.384 56.3235 6.11733 55.7475 5.584C55.1715 5.05067 54.8835 4.38933 54.8835 3.6C54.8835 2.81067 55.1715 2.14933 55.7475 1.616C56.3235 1.08267 57.0702 0.815998 57.9875 0.815998C58.9048 0.815998 59.6515 1.072 60.2275 1.584C60.8035 2.096 61.0915 2.736 61.0915 3.504C61.0915 4.336 60.8035 5.02933 60.2275 5.584C59.6515 6.11733 58.9048 6.384 57.9875 6.384ZM73.3085 26.256C71.4952 26.256 69.8632 25.8827 68.4125 25.136C66.9832 24.368 65.8632 23.312 65.0525 21.968C64.2418 20.624 63.8365 19.0987 63.8365 17.392C63.8365 15.6853 64.2418 14.16 65.0525 12.816C65.8632 11.472 66.9832 10.4267 68.4125 9.68C69.8632 8.912 71.4952 8.528 73.3085 8.528C75.1218 8.528 76.7432 8.912 78.1725 9.68C79.6018 10.4267 80.7218 11.472 81.5325 12.816C82.3432 14.16 82.7485 15.6853 82.7485 17.392C82.7485 19.0987 82.3432 20.624 81.5325 21.968C80.7218 23.312 79.6018 24.368 78.1725 25.136C76.7432 25.8827 75.1218 26.256 73.3085 26.256ZM73.3085 22.16C74.5885 22.16 75.6338 21.7333 76.4445 20.88C77.2765 20.0053 77.6925 18.8427 77.6925 17.392C77.6925 15.9413 77.2765 14.7893 76.4445 13.936C75.6338 13.0613 74.5885 12.624 73.3085 12.624C72.0285 12.624 70.9725 13.0613 70.1405 13.936C69.3085 14.7893 68.8925 15.9413 68.8925 17.392C68.8925 18.8427 69.3085 20.0053 70.1405 20.88C70.9725 21.7333 72.0285 22.16 73.3085 22.16Z" fill="white"/>
<path d="M3.12 23.728L2.41288 24.4351L2.41714 24.4393L3.12 23.728ZM0.464 3.6V2.6H-0.536V3.6H0.464ZM5.648 3.6H6.648V2.6H5.648V3.6ZM14.352 20.528L15.0995 21.1924L15.1066 21.1842L14.352 20.528ZM15.632 3.6V2.6H14.632V3.6H15.632ZM20.752 3.6H21.752V2.6H20.752V3.6ZM18.064 23.728L17.3611 23.0167L17.3569 23.0209L18.064 23.728ZM10.608 25.384C7.59657 25.384 5.38059 24.5559 3.82286 23.0167L2.41714 24.4393C4.44341 26.4415 7.21943 27.384 10.608 27.384V25.384ZM3.82711 23.0209C2.29709 21.4909 1.464 19.2501 1.464 16.144H-0.536C-0.536 19.6086 0.401579 22.4238 2.41289 24.4351L3.82711 23.0209ZM1.464 16.144V3.6H-0.536V16.144H1.464ZM0.464 4.6H5.648V2.6H0.464V4.6ZM4.648 3.6V15.952H6.648V3.6H4.648ZM4.648 15.952C4.648 18.0708 5.08369 19.8459 6.12644 21.1026C7.19884 22.395 8.76766 22.968 10.64 22.968V20.968C9.18434 20.968 8.25716 20.5384 7.66556 19.8254C7.04431 19.0767 6.648 17.8439 6.648 15.952H4.648ZM10.64 22.968C12.4666 22.968 14.0087 22.4194 15.0994 21.1924L13.6046 19.8636C12.9886 20.5566 12.0561 20.968 10.64 20.968V22.968ZM15.1066 21.1842C16.1886 19.9399 16.632 18.1277 16.632 15.952H14.632C14.632 17.915 14.2221 19.1534 13.5974 19.8718L15.1066 21.1842ZM16.632 15.952V3.6H14.632V15.952H16.632ZM15.632 4.6H20.752V2.6H15.632V4.6ZM19.752 3.6V16.144H21.752V3.6H19.752ZM19.752 16.144C19.752 19.2468 18.9102 21.4861 17.3611 23.0167L18.7669 24.4393C20.8018 22.4286 21.752 19.6118 21.752 16.144H19.752ZM17.3569 23.0209C15.8221 24.5557 13.6201 25.384 10.608 25.384V27.384C13.9959 27.384 16.7645 26.4417 18.7711 24.4351L17.3569 23.0209ZM53.1708 8.784L54.1109 9.12476L54.5969 7.784H53.1708V8.784ZM46.9308 26V27H47.632L47.8709 26.3408L46.9308 26ZM42.1308 26L41.1905 26.3406L41.4294 27H42.1308V26ZM38.2588 15.312L39.199 14.9714L38.274 12.4182L37.3222 14.9615L38.2588 15.312ZM34.2588 26V27H34.9522L35.1953 26.3505L34.2588 26ZM29.4587 26L28.518 26.3392L28.7563 27H29.4587V26ZM23.2507 8.784V7.784H21.8271L22.31 9.12321L23.2507 8.784ZM27.9548 8.784L28.8989 8.45457L28.665 7.784H27.9548V8.784ZM32.0187 20.432L31.0746 20.7614L32.0006 23.4155L32.9588 20.7729L32.0187 20.432ZM36.2428 8.784V7.784H35.5417L35.3027 8.44308L36.2428 8.784ZM40.4668 8.784L41.4101 8.45226L41.1751 7.784H40.4668V8.784ZM44.5628 20.432L43.6194 20.7637L44.5518 23.4154L45.5037 20.7706L44.5628 20.432ZM48.7548 8.784V7.784H48.0519L47.8138 8.44537L48.7548 8.784ZM52.2306 8.44324L45.9906 25.6592L47.8709 26.3408L54.1109 9.12476L52.2306 8.44324ZM46.9308 25H42.1308V27H46.9308V25ZM43.071 25.6594L39.199 14.9714L37.3185 15.6526L41.1905 26.3406L43.071 25.6594ZM37.3222 14.9615L33.3222 25.6495L35.1953 26.3505L39.1953 15.6625L37.3222 14.9615ZM34.2588 25H29.4587V27H34.2588V25ZM30.3995 25.6608L24.1915 8.44478L22.31 9.12321L28.518 26.3392L30.3995 25.6608ZM23.2507 9.784H27.9548V7.784H23.2507V9.784ZM27.0106 9.11342L31.0746 20.7614L32.9629 20.1026L28.8989 8.45457L27.0106 9.11342ZM32.9588 20.7729L37.1828 9.12491L35.3027 8.44308L31.0787 20.0911L32.9588 20.7729ZM36.2428 9.784H40.4668V7.784H36.2428V9.784ZM39.5234 9.11573L43.6194 20.7637L45.5061 20.1003L41.4101 8.45226L39.5234 9.11573ZM45.5037 20.7706L49.6957 9.12263L47.8138 8.44537L43.6218 20.0934L45.5037 20.7706ZM48.7548 9.784H53.1708V7.784H48.7548V9.784ZM55.4915 8.784V7.784H54.4915V8.784H55.4915ZM60.4835 8.784H61.4835V7.784H60.4835V8.784ZM60.4835 26V27H61.4835V26H60.4835ZM55.4915 26H54.4915V27H55.4915V26ZM55.7475 5.584L55.0681 6.31776V6.31776L55.7475 5.584ZM55.7475 1.616L56.4269 2.34976L56.4269 2.34976L55.7475 1.616ZM60.2275 1.584L59.5631 2.33141V2.33141L60.2275 1.584ZM60.2275 5.584L60.9069 6.31776L60.9141 6.31111L60.9211 6.30432L60.2275 5.584ZM55.4915 9.784H60.4835V7.784H55.4915V9.784ZM59.4835 8.784V26H61.4835V8.784H59.4835ZM60.4835 25H55.4915V27H60.4835V25ZM56.4915 26V8.784H54.4915V26H56.4915ZM57.9875 5.384C57.2768 5.384 56.7873 5.18394 56.4269 4.85024L55.0681 6.31776C55.8597 7.05072 56.8635 7.384 57.9875 7.384V5.384ZM56.4269 4.85024C56.0566 4.50735 55.8835 4.11252 55.8835 3.6H53.8835C53.8835 4.66614 54.2864 5.59398 55.0681 6.31776L56.4269 4.85024ZM55.8835 3.6C55.8835 3.08748 56.0566 2.69265 56.4269 2.34976L55.0681 0.882238C54.2864 1.60602 53.8835 2.53385 53.8835 3.6H55.8835ZM56.4269 2.34976C56.7873 2.01606 57.2768 1.816 57.9875 1.816V-0.184002C56.8635 -0.184002 55.8597 0.149274 55.0681 0.882239L56.4269 2.34976ZM57.9875 1.816C58.7091 1.816 59.2039 2.01205 59.5631 2.33141L60.8919 0.836591C60.0991 0.131946 59.1006 -0.184002 57.9875 -0.184002V1.816ZM59.5631 2.33141C59.9265 2.6544 60.0915 3.02277 60.0915 3.504H62.0915C62.0915 2.44923 61.6805 1.5376 60.8919 0.83659L59.5631 2.33141ZM60.0915 3.504C60.0915 4.07658 59.9054 4.50591 59.5339 4.86368L60.9211 6.30432C61.7016 5.55276 62.0915 4.59542 62.0915 3.504H60.0915ZM59.5481 4.85024C59.1877 5.18394 58.6982 5.384 57.9875 5.384V7.384C59.1115 7.384 60.1153 7.05072 60.9069 6.31776L59.5481 4.85024ZM68.4125 25.136L67.9392 26.0169L67.947 26.0211L67.9549 26.0251L68.4125 25.136ZM65.0525 21.968L64.1962 22.4845L65.0525 21.968ZM65.0525 12.816L64.1962 12.2995L65.0525 12.816ZM68.4125 9.68L68.8755 10.5664L68.8804 10.5638L68.4125 9.68ZM78.1725 9.68L77.6992 10.561L77.7095 10.5663L78.1725 9.68ZM81.5325 12.816L82.3888 12.2995L81.5325 12.816ZM81.5325 21.968L82.3888 22.4845L81.5325 21.968ZM78.1725 25.136L78.6356 26.0224L78.6458 26.0169L78.1725 25.136ZM76.4445 20.88L75.7199 20.1908L75.7195 20.1912L76.4445 20.88ZM76.4445 13.936L75.7111 14.6158L75.7197 14.625L75.7285 14.6341L76.4445 13.936ZM70.1405 13.936L70.8566 14.6342L70.8651 14.6252L70.1405 13.936ZM70.1405 20.88L69.4159 21.5693L69.4245 21.5781L70.1405 20.88ZM73.3085 25.256C71.6364 25.256 70.1641 24.9129 68.8701 24.2469L67.9549 26.0251C69.5623 26.8525 71.354 27.256 73.3085 27.256V25.256ZM68.8858 24.2551C67.6089 23.569 66.6236 22.6365 65.9088 21.4515L64.1962 22.4845C65.1028 23.9875 66.3574 25.167 67.9392 26.0169L68.8858 24.2551ZM65.9088 21.4515C65.2003 20.2769 64.8365 18.9331 64.8365 17.392H62.8365C62.8365 19.2642 63.2834 20.9711 64.1962 22.4845L65.9088 21.4515ZM64.8365 17.392C64.8365 15.8509 65.2003 14.5071 65.9088 13.3325L64.1962 12.2995C63.2834 13.8129 62.8365 15.5197 62.8365 17.392H64.8365ZM65.9088 13.3325C66.6221 12.15 67.604 11.2306 68.8755 10.5663L67.9495 8.79365C66.3623 9.62277 65.1043 10.794 64.1962 12.2995L65.9088 13.3325ZM68.8804 10.5638C70.1723 9.87985 71.6409 9.528 73.3085 9.528V7.528C71.3495 7.528 69.5541 7.94415 67.9446 8.79621L68.8804 10.5638ZM73.3085 9.528C74.9764 9.528 76.4318 9.87992 77.6992 10.5609L78.6458 8.79911C77.0545 7.94408 75.2673 7.528 73.3085 7.528V9.528ZM77.7095 10.5663C78.981 11.2306 79.9629 12.15 80.6762 13.3325L82.3888 12.2995C81.4807 10.794 80.2227 9.62277 78.6355 8.79365L77.7095 10.5663ZM80.6762 13.3325C81.3847 14.5071 81.7485 15.8509 81.7485 17.392H83.7485C83.7485 15.5197 83.3016 13.8129 82.3888 12.2995L80.6762 13.3325ZM81.7485 17.392C81.7485 18.9331 81.3847 20.2769 80.6762 21.4515L82.3888 22.4845C83.3016 20.9711 83.7485 19.2642 83.7485 17.392H81.7485ZM80.6762 21.4515C79.9614 22.6365 78.9761 23.569 77.6992 24.2551L78.6458 26.0169C80.2276 25.167 81.4822 23.9875 82.3888 22.4845L80.6762 21.4515ZM77.7095 24.2497C76.4401 24.9128 74.9809 25.256 73.3085 25.256V27.256C75.2628 27.256 77.0463 26.8525 78.6355 26.0223L77.7095 24.2497ZM73.3085 23.16C74.836 23.16 76.1524 22.6393 77.1695 21.5687L75.7195 20.1912C75.1152 20.8273 74.341 21.16 73.3085 21.16V23.16ZM77.1691 21.5692C78.2124 20.4723 78.6925 19.0443 78.6925 17.392H76.6925C76.6925 18.641 76.3406 19.5383 75.7199 20.1908L77.1691 21.5692ZM78.6925 17.392C78.6925 15.7406 78.2126 14.317 77.1605 13.2379L75.7285 14.6341C76.3404 15.2616 76.6925 16.142 76.6925 17.392H78.6925ZM77.1779 13.2562C76.163 12.1612 74.844 11.624 73.3085 11.624V13.624C74.333 13.624 75.1046 13.9615 75.7111 14.6158L77.1779 13.2562ZM73.3085 11.624C71.7731 11.624 70.4491 12.1607 69.4159 13.2468L70.8651 14.6252C71.4959 13.962 72.2839 13.624 73.3085 13.624V11.624ZM69.4245 13.2379C68.3724 14.317 67.8925 15.7406 67.8925 17.392H69.8925C69.8925 16.142 70.2446 15.2616 70.8565 14.6341L69.4245 13.2379ZM67.8925 17.392C67.8925 19.0443 68.3726 20.4723 69.4159 21.5692L70.8651 20.1908C70.2444 19.5383 69.8925 18.641 69.8925 17.392H67.8925ZM69.4245 21.5781C70.4596 22.6398 71.7811 23.16 73.3085 23.16V21.16C72.2759 21.16 71.4854 20.8269 70.8565 20.1819L69.4245 21.5781Z" fill="black"/>
<path d="M3.12 23.728L2.41288 24.4351L2.41714 24.4393L3.12 23.728ZM0.464 3.6V2.6H-0.536V3.6H0.464ZM5.648 3.6H6.648V2.6H5.648V3.6ZM14.352 20.528L15.0995 21.1924L15.1066 21.1842L14.352 20.528ZM15.632 3.6V2.6H14.632V3.6H15.632ZM20.752 3.6H21.752V2.6H20.752V3.6ZM18.064 23.728L17.3611 23.0167L17.3569 23.0209L18.064 23.728ZM10.608 25.384C7.59657 25.384 5.38059 24.5559 3.82286 23.0167L2.41714 24.4393C4.44341 26.4415 7.21943 27.384 10.608 27.384V25.384ZM3.82711 23.0209C2.29709 21.4909 1.464 19.2501 1.464 16.144H-0.536C-0.536 19.6086 0.401579 22.4238 2.41289 24.4351L3.82711 23.0209ZM1.464 16.144V3.6H-0.536V16.144H1.464ZM0.464 4.6H5.648V2.6H0.464V4.6ZM4.648 3.6V15.952H6.648V3.6H4.648ZM4.648 15.952C4.648 18.0708 5.08369 19.8459 6.12644 21.1026C7.19884 22.395 8.76766 22.968 10.64 22.968V20.968C9.18434 20.968 8.25716 20.5384 7.66556 19.8254C7.04431 19.0767 6.648 17.8439 6.648 15.952H4.648ZM10.64 22.968C12.4666 22.968 14.0087 22.4194 15.0994 21.1924L13.6046 19.8636C12.9886 20.5566 12.0561 20.968 10.64 20.968V22.968ZM15.1066 21.1842C16.1886 19.9399 16.632 18.1277 16.632 15.952H14.632C14.632 17.915 14.2221 19.1534 13.5974 19.8718L15.1066 21.1842ZM16.632 15.952V3.6H14.632V15.952H16.632ZM15.632 4.6H20.752V2.6H15.632V4.6ZM19.752 3.6V16.144H21.752V3.6H19.752ZM19.752 16.144C19.752 19.2468 18.9102 21.4861 17.3611 23.0167L18.7669 24.4393C20.8018 22.4286 21.752 19.6118 21.752 16.144H19.752ZM17.3569 23.0209C15.8221 24.5557 13.6201 25.384 10.608 25.384V27.384C13.9959 27.384 16.7645 26.4417 18.7711 24.4351L17.3569 23.0209ZM53.1708 8.784L54.1109 9.12476L54.5969 7.784H53.1708V8.784ZM46.9308 26V27H47.632L47.8709 26.3408L46.9308 26ZM42.1308 26L41.1905 26.3406L41.4294 27H42.1308V26ZM38.2588 15.312L39.199 14.9714L38.274 12.4182L37.3222 14.9615L38.2588 15.312ZM34.2588 26V27H34.9522L35.1953 26.3505L34.2588 26ZM29.4587 26L28.518 26.3392L28.7563 27H29.4587V26ZM23.2507 8.784V7.784H21.8271L22.31 9.12321L23.2507 8.784ZM27.9548 8.784L28.8989 8.45457L28.665 7.784H27.9548V8.784ZM32.0187 20.432L31.0746 20.7614L32.0006 23.4155L32.9588 20.7729L32.0187 20.432ZM36.2428 8.784V7.784H35.5417L35.3027 8.44308L36.2428 8.784ZM40.4668 8.784L41.4101 8.45226L41.1751 7.784H40.4668V8.784ZM44.5628 20.432L43.6194 20.7637L44.5518 23.4154L45.5037 20.7706L44.5628 20.432ZM48.7548 8.784V7.784H48.0519L47.8138 8.44537L48.7548 8.784ZM52.2306 8.44324L45.9906 25.6592L47.8709 26.3408L54.1109 9.12476L52.2306 8.44324ZM46.9308 25H42.1308V27H46.9308V25ZM43.071 25.6594L39.199 14.9714L37.3185 15.6526L41.1905 26.3406L43.071 25.6594ZM37.3222 14.9615L33.3222 25.6495L35.1953 26.3505L39.1953 15.6625L37.3222 14.9615ZM34.2588 25H29.4587V27H34.2588V25ZM30.3995 25.6608L24.1915 8.44478L22.31 9.12321L28.518 26.3392L30.3995 25.6608ZM23.2507 9.784H27.9548V7.784H23.2507V9.784ZM27.0106 9.11342L31.0746 20.7614L32.9629 20.1026L28.8989 8.45457L27.0106 9.11342ZM32.9588 20.7729L37.1828 9.12491L35.3027 8.44308L31.0787 20.0911L32.9588 20.7729ZM36.2428 9.784H40.4668V7.784H36.2428V9.784ZM39.5234 9.11573L43.6194 20.7637L45.5061 20.1003L41.4101 8.45226L39.5234 9.11573ZM45.5037 20.7706L49.6957 9.12263L47.8138 8.44537L43.6218 20.0934L45.5037 20.7706ZM48.7548 9.784H53.1708V7.784H48.7548V9.784ZM55.4915 8.784V7.784H54.4915V8.784H55.4915ZM60.4835 8.784H61.4835V7.784H60.4835V8.784ZM60.4835 26V27H61.4835V26H60.4835ZM55.4915 26H54.4915V27H55.4915V26ZM55.7475 5.584L55.0681 6.31776V6.31776L55.7475 5.584ZM55.7475 1.616L56.4269 2.34976L56.4269 2.34976L55.7475 1.616ZM60.2275 1.584L59.5631 2.33141V2.33141L60.2275 1.584ZM60.2275 5.584L60.9069 6.31776L60.9141 6.31111L60.9211 6.30432L60.2275 5.584ZM55.4915 9.784H60.4835V7.784H55.4915V9.784ZM59.4835 8.784V26H61.4835V8.784H59.4835ZM60.4835 25H55.4915V27H60.4835V25ZM56.4915 26V8.784H54.4915V26H56.4915ZM57.9875 5.384C57.2768 5.384 56.7873 5.18394 56.4269 4.85024L55.0681 6.31776C55.8597 7.05072 56.8635 7.384 57.9875 7.384V5.384ZM56.4269 4.85024C56.0566 4.50735 55.8835 4.11252 55.8835 3.6H53.8835C53.8835 4.66614 54.2864 5.59398 55.0681 6.31776L56.4269 4.85024ZM55.8835 3.6C55.8835 3.08748 56.0566 2.69265 56.4269 2.34976L55.0681 0.882238C54.2864 1.60602 53.8835 2.53385 53.8835 3.6H55.8835ZM56.4269 2.34976C56.7873 2.01606 57.2768 1.816 57.9875 1.816V-0.184002C56.8635 -0.184002 55.8597 0.149274 55.0681 0.882239L56.4269 2.34976ZM57.9875 1.816C58.7091 1.816 59.2039 2.01205 59.5631 2.33141L60.8919 0.836591C60.0991 0.131946 59.1006 -0.184002 57.9875 -0.184002V1.816ZM59.5631 2.33141C59.9265 2.6544 60.0915 3.02277 60.0915 3.504H62.0915C62.0915 2.44923 61.6805 1.5376 60.8919 0.83659L59.5631 2.33141ZM60.0915 3.504C60.0915 4.07658 59.9054 4.50591 59.5339 4.86368L60.9211 6.30432C61.7016 5.55276 62.0915 4.59542 62.0915 3.504H60.0915ZM59.5481 4.85024C59.1877 5.18394 58.6982 5.384 57.9875 5.384V7.384C59.1115 7.384 60.1153 7.05072 60.9069 6.31776L59.5481 4.85024ZM68.4125 25.136L67.9392 26.0169L67.947 26.0211L67.9549 26.0251L68.4125 25.136ZM65.0525 21.968L64.1962 22.4845L65.0525 21.968ZM65.0525 12.816L64.1962 12.2995L65.0525 12.816ZM68.4125 9.68L68.8755 10.5664L68.8804 10.5638L68.4125 9.68ZM78.1725 9.68L77.6992 10.561L77.7095 10.5663L78.1725 9.68ZM81.5325 12.816L82.3888 12.2995L81.5325 12.816ZM81.5325 21.968L82.3888 22.4845L81.5325 21.968ZM78.1725 25.136L78.6356 26.0224L78.6458 26.0169L78.1725 25.136ZM76.4445 20.88L75.7199 20.1908L75.7195 20.1912L76.4445 20.88ZM76.4445 13.936L75.7111 14.6158L75.7197 14.625L75.7285 14.6341L76.4445 13.936ZM70.1405 13.936L70.8566 14.6342L70.8651 14.6252L70.1405 13.936ZM70.1405 20.88L69.4159 21.5693L69.4245 21.5781L70.1405 20.88ZM73.3085 25.256C71.6364 25.256 70.1641 24.9129 68.8701 24.2469L67.9549 26.0251C69.5623 26.8525 71.354 27.256 73.3085 27.256V25.256ZM68.8858 24.2551C67.6089 23.569 66.6236 22.6365 65.9088 21.4515L64.1962 22.4845C65.1028 23.9875 66.3574 25.167 67.9392 26.0169L68.8858 24.2551ZM65.9088 21.4515C65.2003 20.2769 64.8365 18.9331 64.8365 17.392H62.8365C62.8365 19.2642 63.2834 20.9711 64.1962 22.4845L65.9088 21.4515ZM64.8365 17.392C64.8365 15.8509 65.2003 14.5071 65.9088 13.3325L64.1962 12.2995C63.2834 13.8129 62.8365 15.5197 62.8365 17.392H64.8365ZM65.9088 13.3325C66.6221 12.15 67.604 11.2306 68.8755 10.5663L67.9495 8.79365C66.3623 9.62277 65.1043 10.794 64.1962 12.2995L65.9088 13.3325ZM68.8804 10.5638C70.1723 9.87985 71.6409 9.528 73.3085 9.528V7.528C71.3495 7.528 69.5541 7.94415 67.9446 8.79621L68.8804 10.5638ZM73.3085 9.528C74.9764 9.528 76.4318 9.87992 77.6992 10.5609L78.6458 8.79911C77.0545 7.94408 75.2673 7.528 73.3085 7.528V9.528ZM77.7095 10.5663C78.981 11.2306 79.9629 12.15 80.6762 13.3325L82.3888 12.2995C81.4807 10.794 80.2227 9.62277 78.6355 8.79365L77.7095 10.5663ZM80.6762 13.3325C81.3847 14.5071 81.7485 15.8509 81.7485 17.392H83.7485C83.7485 15.5197 83.3016 13.8129 82.3888 12.2995L80.6762 13.3325ZM81.7485 17.392C81.7485 18.9331 81.3847 20.2769 80.6762 21.4515L82.3888 22.4845C83.3016 20.9711 83.7485 19.2642 83.7485 17.392H81.7485ZM80.6762 21.4515C79.9614 22.6365 78.9761 23.569 77.6992 24.2551L78.6458 26.0169C80.2276 25.167 81.4822 23.9875 82.3888 22.4845L80.6762 21.4515ZM77.7095 24.2497C76.4401 24.9128 74.9809 25.256 73.3085 25.256V27.256C75.2628 27.256 77.0463 26.8525 78.6355 26.0223L77.7095 24.2497ZM73.3085 23.16C74.836 23.16 76.1524 22.6393 77.1695 21.5687L75.7195 20.1912C75.1152 20.8273 74.341 21.16 73.3085 21.16V23.16ZM77.1691 21.5692C78.2124 20.4723 78.6925 19.0443 78.6925 17.392H76.6925C76.6925 18.641 76.3406 19.5383 75.7199 20.1908L77.1691 21.5692ZM78.6925 17.392C78.6925 15.7406 78.2126 14.317 77.1605 13.2379L75.7285 14.6341C76.3404 15.2616 76.6925 16.142 76.6925 17.392H78.6925ZM77.1779 13.2562C76.163 12.1612 74.844 11.624 73.3085 11.624V13.624C74.333 13.624 75.1046 13.9615 75.7111 14.6158L77.1779 13.2562ZM73.3085 11.624C71.7731 11.624 70.4491 12.1607 69.4159 13.2468L70.8651 14.6252C71.4959 13.962 72.2839 13.624 73.3085 13.624V11.624ZM69.4245 13.2379C68.3724 14.317 67.8925 15.7406 67.8925 17.392H69.8925C69.8925 16.142 70.2446 15.2616 70.8565 14.6341L69.4245 13.2379ZM67.8925 17.392C67.8925 19.0443 68.3726 20.4723 69.4159 21.5692L70.8651 20.1908C70.2444 19.5383 69.8925 18.641 69.8925 17.392H67.8925ZM69.4245 21.5781C70.4596 22.6398 71.7811 23.16 73.3085 23.16V21.16C72.2759 21.16 71.4854 20.8269 70.8565 20.1819L69.4245 21.5781Z" fill="url(#paint0_linear_1_761)"/>
<defs>
<linearGradient id="paint0_linear_1_761" x1="3.43158" y1="26.3902" x2="84.2243" y2="12.9994" gradientUnits="userSpaceOnUse">
<stop stop-color="#3F67F4"/>
<stop offset="1" stop-color="#FC80FF"/>
</linearGradient>
</defs>
</svg>
